<svg xmlns="http://www.w3.org/2000/svg" width="91.16" height="95.982" viewBox="0 0 91.16 95.982">
  <g id="Group_84" data-name="Group 84" transform="translate(16447.449 -21352.047)">
    <g id="Subtraction_90" data-name="Subtraction 90" transform="translate(-16421.551 21365.055)" fill="#fff">
      <path d="M 11.37117862701416 62.7660026550293 C 9.635950088500977 60.21393966674805 8.232076644897461 57.46316909790039 7.183430671691895 54.55593490600586 C 5.734615325927734 50.53939819335938 5.000015258789062 46.3150749206543 5.000015258789062 42.00030517578125 C 5.000015258789062 37.00293350219727 5.977584362030029 32.15777969360352 7.905569076538086 27.59942626953125 C 9.768830299377441 23.19405746459961 12.43733787536621 19.23659706115723 15.83696937561035 15.83695030212402 C 19.23661613464355 12.4373197555542 23.19407653808594 9.76881217956543 27.59939956665039 7.905580997467041 C 30.29732513427734 6.764469623565674 33.09600448608398 5.956245899200439 35.9669303894043 5.486632823944092 C 20.04225158691406 13.02059078216553 9.000414848327637 29.24477767944336 9.000414848327637 47.99970245361328 C 9.000414848327637 53.09314346313477 9.819252967834473 58.06848907470703 11.37117862701416 62.7660026550293 Z" stroke="none"/>
      <path d="M 32.73263931274414 82.97383880615234 C 28.11609840393066 81.93412780761719 23.73693084716797 80.12866973876953 19.71680641174316 77.60762786865234 C 15.76909732818604 75.13198089599609 12.27836894989014 72.03773498535156 9.34157657623291 68.41085815429688 C 6.378889083862305 64.75198364257812 4.070347785949707 60.66131591796875 2.480035066604614 56.25248336791992 C 0.8344101309776306 51.69027328491211 1.431274449714692e-05 46.89514923095703 1.431274449714692e-05 42.00029373168945 C 1.431274449714692e-05 36.33016967773438 1.110472679138184 30.82969093322754 3.300535202026367 25.65168952941895 C 5.415889263153076 20.65031433105469 8.444222450256348 16.15862846374512 12.30140972137451 12.30141925811768 C 16.15863990783691 8.444211006164551 20.65032768249512 5.415877819061279 25.65168190002441 3.300523519515991 C 30.82970237731934 1.110461115837097 36.33018112182617 2.736409442150034e-06 42.00030517578125 2.736409442150034e-06 C 50.32261657714844 2.736409442150034e-06 58.36643218994141 2.429190158843994 65.26213836669922 7.024960994720459 C 62.24407577514648 6.345648765563965 59.12801361083984 6.000315189361572 55.99980545043945 6.000315189361572 C 32.84126281738281 6.000315189361572 14.00041007995605 24.84114837646484 14.00041007995605 47.99971008300781 C 14.00041007995605 62.07848358154297 21.00341033935547 75.15225219726562 32.7334098815918 82.97202301025391 L 32.73263931274414 82.97383880615234 Z" stroke="none" fill="#fff"/>
    </g>
    <line id="Line_1" data-name="Line 1" x2="30" y2="29.215" transform="translate(-16442.5 21363.471)" fill="none" stroke="#fff" stroke-linecap="round" stroke-width="7"/>
    <line id="Line_2" data-name="Line 2" x2="5.609" y2="17.832" transform="translate(-16406.5 21354.555)" fill="none" stroke="#fff" stroke-linecap="round" stroke-width="4"/>
  </g>
</svg>
